<?xml version="1.0" encoding="UTF-8" standalone="no"?>
<!-- Created with Inkscape (http://www.inkscape.org/) -->

<svg
   xmlns:dc="http://purl.org/dc/elements/1.1/"
   xmlns:cc="http://creativecommons.org/ns#"
   xmlns:rdf="http://www.w3.org/1999/02/22-rdf-syntax-ns#"
   xmlns:svg="http://www.w3.org/2000/svg"
   xmlns="http://www.w3.org/2000/svg"
   xmlns:sodipodi="http://sodipodi.sourceforge.net/DTD/sodipodi-0.dtd"
   xmlns:inkscape="http://www.inkscape.org/namespaces/inkscape"
   width="300"
   height="300"
   viewBox="0 0 79.374998 79.375002"
   version="1.1"
   id="svg4884"
   inkscape:version="0.92.3 (2405546, 2018-03-11)"
   sodipodi:docname="Erie.svg">
  <defs
     id="defs4878" />
  <sodipodi:namedview
     id="base"
     pagecolor="#ffffff"
     bordercolor="#666666"
     borderopacity="1.0"
     inkscape:pageopacity="0.0"
     inkscape:pageshadow="2"
     inkscape:zoom="0.7"
     inkscape:cx="330.88703"
     inkscape:cy="256.33971"
     inkscape:document-units="px"
     inkscape:current-layer="layer1"
     showgrid="false"
     units="px"
     inkscape:window-width="1920"
     inkscape:window-height="1001"
     inkscape:window-x="-9"
     inkscape:window-y="-9"
     inkscape:window-maximized="1" />
  <metadata
     id="metadata4881">
    <rdf:RDF>
      <cc:Work
         rdf:about="">
        <dc:format>image/svg+xml</dc:format>
        <dc:type
           rdf:resource="http://purl.org/dc/dcmitype/StillImage" />
        <dc:title></dc:title>
      </cc:Work>
    </rdf:RDF>
  </metadata>
  <g
     inkscape:label="Layer 1"
     inkscape:groupmode="layer"
     id="layer1"
     transform="translate(0,-217.62499)">
    <path
       inkscape:connector-curvature="0"
       style="opacity:.5;vector-effect:none;fill:#017151c;fill-opacity:1;stroke-width:391.06726074;stroke-linecap:butt;stroke-linejoin:miter;stroke-miterlimit:4;stroke-dasharray:none;stroke-dashoffset:0;stroke-opacity:1"
       d="m 76.290002,231.05386 -0.519139,0.67792 -2.331718,1.09179 -3.088117,0.44245 -1.650211,0.75821 -1.598475,0.13514 -0.595854,0.90088 -1.600259,0.13425 -0.811721,0.69215 -1.471807,-0.16246 -2.081942,1.40768 -3.125584,1.34152 -0.747506,0.66187 -1.596687,0.34782 -1.143551,0.74393 -1.195292,2.29074 -1.762592,2.15509 0.235463,0.68502 -0.984781,0.86709 -2.403062,0.29623 -3.088121,-0.73325 -1.716215,-0.004 -2.137249,0.59235 h -1.248798 l -3.077422,0.79561 -1.518187,0.72076 -0.813517,1.20241 -2.560053,2.07836 -0.943747,1.86431 -2.064095,2.31742 -1.300545,2.79023 -0.799235,1.01508 0.01971,0.7493 -2.27461,0.59762 -2.155079,2.13544 -2.857992,2.20149 -1.28092,2.14619 -0.237276,1.31842 0.20156,1.61982 -1.627019,-1.52889 -1.864289,-0.19096 -1.341569,0.59583 -1.025815,1.02758 -2.021281,0.77072 -1.9106793,-0.86702 -1.4218565,-0.12311 -0.6654298,-0.78855 -0.2069438,-0.0497 -0.2782894,-0.002 -0.3764295,0.0372 -0.2979337,0.10142 0.2354659,1.48426 -1.8357525,3.7732 -0.7564064,0.91699 -0.7653452,1.62343 0.3782077,1.13288 -0.7136037,0.87148 1.0668399,0.85455 1.2024213,-0.12312 0.5244965,-0.58697 2.4547949,1.23816 2.6849451,0.31759 0.8634575,0.8117 1.486075,0.66725 1.5967,-0.38715 0.570882,-1.62879 1.848233,1.55925 -2.42982,1.08996 -1.318383,0.30353 -0.246172,1.36298 1.054346,0.14216 1.709079,-1.19528 1.428993,-0.0855 1.653779,-0.75639 1.493222,0.76891 1.816125,0.54056 2.190755,-1.58066 1.828617,-0.58331 1.26665,-1.30414 2.856195,-1.7519 1.919594,0.24097 1.131065,-0.18726 2.372737,-0.86885 3.357503,-4.10144 1.593121,-2.62602 1.493221,-1.47187 0.874161,-0.35145 1.689465,-1.58598 1.92137,-1.48784 1.660911,-0.7921 1.851814,-1.48786 1.154251,-0.56552 3.254035,-2.28178 3.619755,-2.84724 4.038999,-3.63584 2.233589,-2.4084 0.890209,-0.45133 2.253208,-2.20506 3.568023,-4.10323 0.936606,-1.7858 1.691241,-1.76079 1.61632,-1.0312 0.927678,-3.70711 1.964195,-1.77874 0.818871,-1.65912 -0.654741,-1.3648 z m -0.08744,1.85175 v 0.001 l -11.141145,10.28655 -6.188733,5.55013 -11.321331,5.5268 -8.695268,4.15679 8.693476,-4.1586 11.323123,-5.52499 6.188733,-5.55192 z m -43.098128,31.58595 -12.006393,11.52652 -4.941713,1.06503 4.939931,-1.06685 z m -17.155049,9.6497 0.110594,1.38443 -0.390689,0.49589 -0.888445,-1.82856 z"
       id="path10" />
  </g>
</svg>
